# xmcd
#
# Track frame offsets:
#	150
#	19058
#	30610
#	47247
#	58738
#	75296
#	92610
#	106773
#	129532
#	146796
#	166543
#	182360
#	196704
#	213599
#	231915
#	253008
#	272140
#	296144
#
# Disc length: 4170 seconds
#
# Revision: 0
# Processed by: cddbd v1.4b41PL2 Copyright (c) Steve Scherf et al.
# Submitted via: audiograbber 1.80
#
DISCID=f5104812
DTITLE=Joe Cocker - Golden Collection 2000
DYEAR=1900
DGENRE=
TTITLE0=Look What You've Done
TTITLE1=Marie
TTITLE2=Many Rivers To Cross
TTITLE3=So Good, So Right
TTITLE4=There Goes My Baby
TTITLE5=Crazy In Love
TTITLE6=A Girl Like You
TTITLE7=Unchain My Heart
TTITLE8=Isolation
TTITLE9=All Our Tomorrows
TTITLE10=Bye Bye, Blackbird
TTITLE11=Dignity
TTITLE12=You Cfn Leave Your Hat On
TTITLE13=That's All I Need To Know
TTITLE14=N'obliez Jarais
TTITLE15=Wavward Soul
TTITLE16=Need Your Love So Bad
TTITLE17=First We Take Manhattan
EXTD=
EXTT0=
EXTT1=
EXTT2=
EXTT3=
EXTT4=
EXTT5=
EXTT6=
EXTT7=
EXTT8=
EXTT9=
EXTT10=
EXTT11=
EXTT12=
EXTT13=
EXTT14=
EXTT15=
EXTT16=
EXTT17=
PLAYORDER=
